<?xml version="1.0" encoding="utf-8"?>
<!DOCTYPE svg PUBLIC "-//W3C//DTD SVG 20010904//EN" "http://www.w3.org/TR/2001/REC-SVG-20010904/DTD/svg10.dtd">
<svg version="1.0" xmlns="http://www.w3.org/2000/svg" width="260px" height="250px" viewBox="0 0 260 250" preserveAspectRatio="xMidYMid meet">
 <g fill="#4b2601">
  <path d="M123.50 243.65 c-1.50 -0.70 -3.50 -1.85 -4.40 -2.55 l-1.65 -1.25 -1.20 1.15 c-0.70 0.65 -1.25 1.60 -1.25 2.15 0 1.60 -2.30 0.60 -6.15 -2.55 -9.40 -7.85 -10.45 -8.40 -17.05 -8.25 -3.60 0.10 -5.35 -0.05 -6.55 -0.65 -3.20 -1.50 -10.35 -8.95 -17.80 -18.60 -2.55 -3.30 -9 -9.30 -10.85 -10.15 -2 -0.85 -2.10 -2.40 -0.35 -5.20 1.75 -2.90 1.60 -4.40 -0.75 -6.95 -1.10 -1.20 -2 -2.45 -2 -2.75 0 -0.35 0.60 -1.40 1.30 -2.35 1.25 -1.60 1.30 -1.95 1 -5.35 -0.15 -2 -0.85 -6.40 -1.55 -9.85 -0.70 -3.45 -1.60 -8.95 -2 -12.25 -0.40 -3.30 -1 -8.25 -1.30 -11 -0.35 -2.75 -0.70 -9.85 -0.80 -15.75 l-0.20 -10.70 1.85 -4 c3.20 -6.80 2.80 -11.75 -1.40 -16.10 l-1.95 -2.05 1.25 -3.15 c2.30 -5.65 2.30 -8.55 0.05 -11.20 -1.35 -1.55 -1.55 -2.30 -0.70 -2.30 1.10 0 4.80 -4.10 5.35 -5.90 0.30 -1 0.80 -4 1.10 -6.60 1 -8.40 2.10 -12.65 3.80 -14 1.75 -1.50 6.75 -8.05 7.70 -10.10 0.55 -1.25 1 -3.25 1 -4.75 l0 -2.65 1.55 0.95 c0.90 0.55 1.85 0.85 2.25 0.70 0.35 -0.10 1.25 -1.40 1.95 -2.80 2.10 -3.95 5 -7.70 10.20 -13 6.10 -6.25 10.75 -9.35 18.55 -12.30 10.30 -3.95 33.20 -6.70 41.60 -5 7.80 1.55 10.60 2.35 14.90 4.20 5.70 2.45 9.30 5.15 15 11.05 4.75 4.95 7.25 8.05 11.60 14.20 1.40 2 10.40 18.20 10.40 18.75 0 0.10 1.10 2.50 2.45 5.35 4.75 9.95 8.15 21.35 9.30 30.90 0.15 1.50 0.45 3.15 0.55 3.60 0.15 0.50 -0.10 0.95 -0.75 1.15 -0.50 0.15 -1.35 0.85 -1.80 1.55 -0.75 1.15 -0.75 1.30 0.20 2.60 0.95 1.35 0.95 1.40 0 3.30 -0.90 1.85 -0.95 3.30 -0.95 18.90 l0 16.95 -1.20 1.60 c-3.40 4.55 -3.90 8.50 -1.50 11.85 7.80 11.05 9.85 17.50 7.95 25.65 -1.05 4.55 -1.95 6.95 -4 10.50 -3.65 6.30 -5.30 8.40 -10.50 13.40 -6.70 6.30 -19.70 17.55 -25.20 21.70 -6.50 4.90 -8.30 6.70 -9 8.90 -0.55 1.65 -0.70 1.70 -1.95 1.25 -2.40 -0.90 -5.35 1 -9.40 6 -3.25 4.05 -6.85 5.10 -16.80 5.05 -6.60 0 -7.35 -0.10 -9.90 -1.30z m-13.60 -111.15 c2.25 0 2.65 -0.15 2.50 -0.85 -0.20 -1.25 -2.85 -1.40 -5.90 -0.40 -3.20 1.05 -3.90 2.05 -1.20 1.60 1.05 -0.20 3.15 -0.35 4.60 -0.35z m2.50 -9.35 c2.15 -0.55 3.55 -1.25 4.60 -2.30 1.60 -1.65 1.60 -1.70 1.70 -5.60 0.05 -2.15 0.20 -2.50 1.10 -2.65 1.40 -0.20 2.45 -1.40 3.20 -3.75 0.65 -2.10 1.70 -2.85 4.10 -2.85 2.15 0 3.65 1.10 4.95 3.60 1 1.90 1.05 1.95 2 1.10 0.75 -0.70 0.80 -0.95 0.30 -1.40 -1.30 -1.10 -6.25 -7.10 -9.75 -11.85 -4.85 -6.55 -8.90 -9.45 -13.25 -9.45 -5.05 0 -13.55 6.50 -16.60 12.65 -1.45 3.05 -2.15 7.50 -2.20 14.20 -0.05 3.35 0.05 3.75 1.45 5.35 0.95 1.05 2.50 2.05 3.95 2.55 5.60 1.85 8.25 1.95 14.45 0.40z m-27.90 -20.15 c0.65 -1.25 0.20 -2.15 -2.75 -5.50 -2.05 -2.35 -2.25 -2.45 -2.75 -1.50 -0.40 0.75 -0.35 1.40 0.30 2.60 0.65 1.35 4.05 5.40 4.55 5.40 0.05 0 0.35 -0.45 0.65 -1z m13 -28 c14.70 -1.15 20.50 -1.50 24.50 -1.50 5.45 0 15.10 -1.25 20.15 -2.60 3.60 -0.95 6.85 -2.95 6.85 -4.25 0 -0.25 -0.65 -1.50 -1.45 -2.75 -2.85 -4.45 -11.95 -10.30 -17.70 -11.35 -3 -0.55 -4.45 -0.40 -16.60 1.75 -4.50 0.80 -15.60 0.85 -17.25 0.05 -0.55 -0.25 -0.95 0.20 -1.50 2 l-0.75 2.40 -2.60 0.25 c-2.40 0.25 -2.70 0.45 -4.20 2.50 -0.90 1.25 -2.70 3.55 -4.05 5.15 -1.30 1.60 -2.40 3.10 -2.40 3.40 0 0.25 0.45 1.35 1 2.45 1.45 2.80 3.05 3.60 6.75 3.25 1.65 -0.15 5.80 -0.50 9.25 -0.75z"/>
  <path d="M102.45 108.15 c-1 -0.55 -2.85 -1.85 -4.15 -2.85 -2 -1.65 -2.30 -2.15 -2.30 -3.80 0 -2.35 0.40 -2.50 5.55 -2.50 3.80 0 3.95 0.05 3.95 1.15 0 1.25 0.85 2.35 1.80 2.35 0.35 0 2.15 -0.70 4.05 -1.60 2.75 -1.30 4.15 -1.65 7.55 -1.80 l4.10 -0.20 0 2 c0 1.60 -0.40 2.40 -2.05 4.25 -2.45 2.80 -3.85 3.30 -11.20 3.65 -4.80 0.25 -5.75 0.15 -7.30 -0.65z"/>
 </g>
 <g fill="#ffcb66">
  <path d="M101.15 133.50 c-0.65 -0.55 -1.15 -1.25 -1.15 -1.45 0 -0.25 1.75 -1.10 3.90 -1.85 4.65 -1.75 8.85 -1.95 9.90 -0.45 0.75 1.05 0.95 3.55 0.30 3.95 -0.25 0.15 -3 0.40 -6.15 0.55 -5.35 0.30 -5.75 0.25 -6.80 -0.75z"/>
  <path d="M101.05 125.45 c-8.05 -1.55 -10.90 -4.40 -10.30 -10.40 0.10 -1.55 0.35 -4.70 0.50 -7.05 0.15 -2.35 0.60 -5.30 1.05 -6.60 1.05 -3.20 4.55 -7.85 7.80 -10.45 7.35 -5.85 14.05 -6.20 20.80 -1.05 0.95 0.70 3.30 3.45 5.20 6.05 4 5.45 8.50 10.80 10.35 12.35 1.20 1.05 1.25 1.10 0.40 2.40 -1.10 1.65 -3.05 2.95 -4.20 2.70 -0.50 -0.10 -1.40 -1.10 -2.05 -2.30 -2.30 -4.15 -4.90 -4.45 -6.10 -0.75 -0.75 2.30 -1.80 3.55 -3.10 3.75 -0.85 0.15 -1 0.60 -1.05 3.15 -0.15 4.95 -1.90 6.50 -8.95 7.95 -4.20 0.85 -6.90 0.95 -10.35 0.25z m14.55 -19 c1.75 -0.45 5.90 -4.40 5.90 -5.60 0 -0.95 -5.30 0 -8.75 1.60 -1.90 0.90 -4.10 1.75 -4.85 1.90 -1.85 0.35 -3.90 -1 -3.90 -2.60 0 -1.15 -0.15 -1.25 -2.60 -1.25 -4.20 0 -4.55 0.65 -1.90 3 3.95 3.50 5.65 4.10 10.25 3.75 2.20 -0.15 4.85 -0.50 5.85 -0.80z"/>
  <path d="M80.90 104.15 c-1.30 -1.35 -2.80 -3.45 -3.40 -4.75 -0.95 -2.15 -0.95 -2.50 -0.30 -4 0.35 -0.90 1.05 -2.10 1.50 -2.65 0.75 -0.95 0.85 -0.90 3.50 2 3.70 4 5 6.65 4.30 8.55 -0.65 1.70 -1.95 3.20 -2.70 3.20 -0.35 0 -1.65 -1.05 -2.90 -2.35z"/>
  <path d="M84.45 77.55 c-2.40 -0.75 -3.45 -1.60 -4.40 -3.45 -2.15 -4.35 -2.05 -4.85 2.65 -10.60 1.70 -2.05 3.60 -4.60 4.20 -5.60 1.30 -2.10 1.80 -2.30 2.95 -1.15 1.25 1.30 2.35 0.65 3.15 -1.75 0.45 -1.25 0.90 -2.55 1.05 -2.90 0.15 -0.55 0.80 -0.45 2.85 0.35 3.20 1.25 9.55 1.40 14.85 0.35 1.95 -0.40 6.15 -1.10 9.35 -1.55 7.50 -1.15 11.30 -0.65 16.85 2.25 10.50 5.50 15.25 12.60 11.05 16.50 -2.20 2.05 -9.20 3.75 -19.25 4.70 -1.65 0.15 -6.50 0.45 -10.75 0.60 -4.25 0.20 -8.40 0.40 -9.25 0.45 -0.80 0.05 -4.30 0.25 -7.75 0.45 -3.45 0.20 -8.45 0.70 -11.10 1.10 -2.70 0.40 -4.95 0.70 -5 0.65 -0.10 0 -0.75 -0.20 -1.45 -0.40z"/>
 </g>
</svg>